<?xml version="1.0" standalone="no"?><!DOCTYPE svg PUBLIC "-//W3C//DTD SVG 1.1//EN" "http://www.w3.org/Graphics/SVG/1.1/DTD/svg11.dtd"><svg t="1604887603499" class="icon" viewBox="0 0 1024 1024" version="1.1" xmlns="http://www.w3.org/2000/svg" p-id="911" xmlns:xlink="http://www.w3.org/1999/xlink" width="200" height="200"><defs><style type="text/css"></style></defs><path d="M974.75697778 882.64248889H930.70222222V358.9613037c0-47.93837037-39.68568889-87.25997037-88.23087407-87.25997037H666.0096v610.94115556h-44.17611852V140.7506963c0-47.93837037-39.68568889-87.25997037-88.23087407-87.25997038H180.80047408c-48.54518518 0-88.23087408 39.3216-88.23087408 87.25997038v741.89179259h-44.05475555c-13.22856297 0-22.08805925 8.73813333-22.08805927 21.84533333v43.69066667c0 13.1072 8.73813333 21.84533333 22.08805927 21.84533333h926.24213333c13.22856297 0 22.08805925-8.73813333 22.08805925-21.84533333v-43.69066667c0-13.1072-8.8594963-21.84533333-22.08805925-21.84533333zM313.20746667 686.27721482c0 13.1072-8.8594963 21.84533333-22.08805926 21.84533333h-88.23087408c-13.22856297 0-22.08805925-8.73813333-22.08805925-21.84533333v-43.69066667c0-13.1072 8.8594963-21.84533333 22.08805925-21.84533333H291.11940741c13.22856297 0 22.08805925 8.73813333 22.08805926 21.84533333v43.69066667z m0-174.51994074c0 13.1072-8.8594963 21.84533333-22.08805926 21.84533333h-88.23087408c-13.22856297 0-22.08805925-8.73813333-22.08805925-21.84533333v-43.69066667c0-13.1072 8.8594963-21.84533333 22.08805925-21.84533333H291.11940741c13.22856297 0 22.08805925 8.73813333 22.08805926 21.84533333v43.69066667z m0-174.64130371c0 13.1072-8.8594963 21.84533333-22.08805926 21.84533333h-88.23087408c-13.22856297 0-22.08805925-8.73813333-22.08805925-21.84533333v-43.69066667c0-13.1072 8.8594963-21.84533333 22.08805925-21.84533333H291.11940741c13.22856297 0 22.08805925 8.73813333 22.08805926 21.84533333v43.69066667z m220.5165037 349.16124445c0 13.1072-8.8594963 21.84533333-22.08805926 21.84533333H423.40503703c-13.22856297 0-22.08805925-8.73813333-22.08805925-21.84533333v-43.69066667c0-13.1072 8.8594963-21.84533333 22.08805925-21.84533333h88.23087408c13.22856297 0 22.08805925 8.73813333 22.08805926 21.84533333v43.69066667z m0-174.51994074c0 13.1072-8.8594963 21.84533333-22.08805926 21.84533333H423.40503703c-13.22856297 0-22.08805925-8.73813333-22.08805925-21.84533333v-43.69066667c0-13.1072 8.8594963-21.84533333 22.08805925-21.84533333h88.23087408c13.22856297 0 22.08805925 8.73813333 22.08805926 21.84533333v43.69066667z m0-174.64130371c0 13.1072-8.8594963 21.84533333-22.08805926 21.84533333H423.40503703c-13.22856297 0-22.08805925-8.73813333-22.08805925-21.84533333v-43.69066667c0-13.1072 8.8594963-21.84533333 22.08805925-21.84533333h88.23087408c13.22856297 0 22.08805925 8.73813333 22.08805926 21.84533333v43.69066667z m330.83543704 349.16124445c0 13.1072-8.8594963 21.84533333-22.08805926 21.84533333h-88.23087407c-13.22856297 0-22.08805925-8.73813333-22.08805926-21.84533333v-43.69066667c0-13.1072 8.8594963-21.84533333 22.08805926-21.84533333h88.23087407c13.22856297 0 22.08805925 8.73813333 22.08805926 21.84533333v43.69066667z m0-174.51994074c0 13.1072-8.8594963 21.84533333-22.08805926 21.84533333h-88.23087407c-13.22856297 0-22.08805925-8.73813333-22.08805926-21.84533333v-43.69066667c0-13.1072 8.8594963-21.84533333 22.08805926-21.84533333h88.23087407c13.22856297 0 22.08805925 8.73813333 22.08805926 21.84533333v43.69066667z m0 0" p-id="912"></path></svg>