<?xml version="1.0" standalone="no"?><!DOCTYPE svg PUBLIC "-//W3C//DTD SVG 1.1//EN" "http://www.w3.org/Graphics/SVG/1.1/DTD/svg11.dtd"><svg t="1604977873624" class="icon" viewBox="0 0 1024 1024" version="1.1" xmlns="http://www.w3.org/2000/svg" p-id="975" xmlns:xlink="http://www.w3.org/1999/xlink" width="200" height="200"><defs><style type="text/css"></style></defs><path d="M634.09114075 273.88586667H249.97736297c-66.99235555 0-121.48432592 54.49197037-121.48432594 121.48432592v384.11377778c0 66.99235555 54.49197037 121.48432592 121.48432594 121.48432593h384.11377778c66.99235555 0 121.48432592-54.49197037 121.48432592-121.48432593V395.37019259c0-66.99235555-54.49197037-121.48432592-121.48432592-121.48432592z m46.8461037 505.47674074c0 25.85031111-20.99579259 46.8461037-46.8461037 46.8461037H249.97736297c-25.85031111 0-46.8461037-20.99579259-46.84610372-46.8461037V395.37019259c0-25.85031111 20.99579259-46.8461037 46.84610372-46.8461037h384.11377778c25.85031111 0 46.8461037 20.99579259 46.8461037 46.8461037v383.99241482z" p-id="976"></path><path d="M900.84693333 645.3778963V263.81274075h-0.12136296v-10.07312593c0-68.44871111-55.7056-124.15431111-124.15431112-124.15431112H381.8989037c-1.21362963 0-2.3058963 0.12136297-3.51952592 0.12136297h-0.84954075c-0.9709037-0.12136297-1.94180741-0.12136297-3.15543703-0.12136297-21.11715555 0-38.22933333 17.11217778-38.22933333 38.22933333 0 20.99579259 17.11217778 38.10797037 38.10797036 38.22933334l10.92266667 0.12136296h391.51691852c26.2144 0 47.57428148 21.35988148 47.57428148 47.57428149v391.63828148c0 2.18453333 0 4.2477037 0.12136297 6.31087407 0 2.06317037 0.12136297 4.12634075 0.12136296 6.18951111 0.12136297 20.87442963 17.23354075 37.98660741 38.22933334 37.98660741 21.11715555 0 38.22933333-17.11217778 38.22933333-38.22933334 0-1.09226667-0.12136297-2.54862222-0.24272593-3.76225185v-1.21362962c0-2.79134815 0.12136297-5.09724445 0.12136296-7.28177778z" p-id="977"></path></svg>