<?xml version="1.0" standalone="no"?><!DOCTYPE svg PUBLIC "-//W3C//DTD SVG 1.1//EN" "http://www.w3.org/Graphics/SVG/1.1/DTD/svg11.dtd"><svg t="1606750108566" class="icon" viewBox="0 0 1024 1024" version="1.1" xmlns="http://www.w3.org/2000/svg" p-id="2122" xmlns:xlink="http://www.w3.org/1999/xlink" width="200" height="200"><defs><style type="text/css"></style></defs><path d="M238.94546963 542.25578667v290.53079703c0 18.14376297 12.14843259 30.25578667 30.35287704 30.25578667h485.43971555c18.20444445 0 30.32860445-12.09988741 30.32860445-30.25578667V530.15589925c0-157.35921778-139.5795437-284.47478518-297.31498667-272.35062517-145.63555555 6.03173925-248.80621037 139.19118222-248.80621037 284.45051259z m570.36951704 375.25428148H214.73355852c-18.20444445 0-30.36501333 12.1120237-30.36501334 30.26792296s12.16056889 30.28005925 30.36501334 30.28005926h594.58142815c18.20444445 0 30.34074075-12.1120237 30.34074074-30.28005926-0.0121363-18.15589925-12.1362963-30.26792297-30.34074074-30.26792296zM512.02427259 197.14806518c18.18017185 0 30.34074075-12.09988741 30.34074074-30.26792296v-90.65813333c0-18.15589925-12.16056889-30.26792297-30.34074074-30.26792297-18.20444445 0-30.36501333 12.09988741-30.36501334 30.26792297v96.70200889c0 12.1120237 12.16056889 24.22404741 30.36501334 24.2240474z m260.95464296 96.83550815c6.08028445 0 18.20444445 0 24.2847289-6.04387555l60.64507258-60.40234667c12.1362963-12.1120237 12.1362963-30.26792297 0-42.36781036-12.16056889-12.1120237-30.35287703-12.1120237-42.48917333 0l-60.65720888 54.3463348c-12.12416 12.09988741-12.12416 30.26792297 0 42.36781037 6.08028445 6.04387555 12.16056889 12.09988741 18.21658073 12.09988741z m194.14433186 193.80451556h-97.06609778c-18.21658075 0-30.34074075 12.09988741-30.34074074 30.25578666 0 18.16803555 12.12416 30.28005925 30.34074074 30.28005927h97.06609778c18.19230815 0 30.30433185-12.09988741 30.30433184-30.28005927 0.0121363-18.15589925-12.09988741-30.25578667-30.30433184-30.25578666zM226.79703703 281.87154963c6.05601185 6.05601185 12.09988741 6.05601185 24.23618372 6.05601185 6.06814815 0 18.20444445 0 24.28472888-6.05601185 12.14843259-12.09988741 12.14843259-30.26792297 0-42.36781038L214.66074075 185.16954075c-12.09988741-12.1120237-30.30433185-12.1120237-42.46490075 0-12.1362963 12.09988741-12.1362963 30.25578667 0 42.36781036L226.79703703 281.87154963z m-42.48917333 236.17232592c0-18.14376297-12.16056889-30.25578667-30.34074073-30.25578666h-97.05396149c-18.21658075 0-30.34074075 18.15589925-30.34074073 30.25578666 0 12.1120237 12.12416 30.28005925 30.34074073 30.28005927h97.05396149c12.12416-0.0121363 30.34074075-12.1120237 30.34074073-30.28005927z" p-id="2123"></path></svg>