<?xml version="1.0" standalone="no"?><!DOCTYPE svg PUBLIC "-//W3C//DTD SVG 1.1//EN" "http://www.w3.org/Graphics/SVG/1.1/DTD/svg11.dtd"><svg t="1606749704781" class="icon" viewBox="0 0 1024 1024" version="1.1" xmlns="http://www.w3.org/2000/svg" p-id="4734" xmlns:xlink="http://www.w3.org/1999/xlink" width="200" height="200"><defs><style type="text/css"></style></defs><path d="M177.152 192h526.336c8.704 0 15.872 7.168 15.872 15.872v99.84c0 8.704-7.168 15.872-15.872 15.872H177.152c-8.704 0-15.872-7.168-15.872-15.872V207.872c0-8.704 7.168-15.872 15.872-15.872zM177.152 373.76h526.336c8.704 0 15.872 7.168 15.872 15.872v35.84c0 8.704-7.168 15.872-15.872 15.872H177.152c-8.704 0-15.872-7.168-15.872-15.872v-35.84c0-8.704 7.168-15.872 15.872-15.872zM190.464 516.096h21.504c10.24 0 13.824 1.024 17.408 3.072 3.584 2.048 6.656 5.12 8.704 8.704 2.048 3.584 3.072 7.168 3.072 17.408v15.36c0 10.24-1.024 13.824-3.072 17.408-2.048 3.584-5.12 6.656-8.704 8.704-3.584 2.048-7.168 3.072-17.408 3.072h-21.504c-10.24 0-13.824-1.024-17.408-3.072-3.584-2.048-6.656-5.12-8.704-8.704-2.048-3.584-3.072-7.168-3.072-17.408v-15.36c0-10.24 1.024-13.824 3.072-17.408 2.048-3.584 5.12-6.656 8.704-8.704 3.584-2.048 7.168-3.072 17.408-3.072zM327.168 516.096H348.672c10.24 0 13.824 1.024 17.408 3.072 3.584 2.048 6.656 5.12 8.704 8.704 2.048 3.584 3.072 7.168 3.072 17.408v15.36c0 10.24-1.024 13.824-3.072 17.408-2.048 3.584-5.12 6.656-8.704 8.704-3.584 2.048-7.168 3.072-17.408 3.072h-21.504c-10.24 0-13.824-1.024-17.408-3.072-3.584-2.048-6.656-5.12-8.704-8.704-2.048-3.584-3.072-7.168-3.072-17.408v-15.36c0-10.24 1.024-13.824 3.072-17.408 2.048-3.584 5.12-6.656 8.704-8.704 3.584-2.048 7.168-3.072 17.408-3.072zM922.112 811.52v-138.24c0-60.928-49.664-110.08-110.592-110.08-60.928 0-110.592 49.152-110.592 110.08v138.24H922.112z m-110.592-311.808c96.256 0 174.592 77.824 174.592 174.08V855.04c0 7.168-0.512 9.728-2.048 12.288-1.536 2.56-3.584 4.608-6.144 6.144-2.56 1.536-5.12 2.048-12.288 2.048h-308.224c-7.168 0-9.728-0.512-12.288-2.048-2.56-1.536-4.608-3.584-6.144-6.144-1.536-2.56-2.048-5.12-2.048-12.288v-181.248c0-96.256 77.824-174.08 174.592-174.08zM628.736 903.68h353.792c21.504 0 31.744 10.752 31.744 31.744 0 21.504-10.752 31.744-31.744 31.744h-353.792c-21.504 0-31.744-10.752-31.744-31.744-0.512-20.992 10.24-31.744 31.744-31.744z" p-id="4735"></path><path d="M508.416 972.8H154.112c-53.248 0-72.704-5.632-92.672-15.872-19.456-10.24-34.816-25.6-45.568-45.568-10.24-19.456-15.872-38.912-15.872-92.672V153.6C0.512 100.352 6.144 80.896 16.384 61.44c10.24-19.456 25.6-34.816 45.568-45.568 19.456-10.24 38.912-15.872 92.16-15.872h576c53.248 0 72.704 5.632 92.672 15.872 19.456 10.24 34.816 25.6 45.568 45.568 10.24 19.456 15.872 38.912 15.872 92.672v263.68c-20.992-5.632-42.496 0.512-64 0v-261.12c0-32.256-3.584-43.52-9.728-55.296-6.144-11.776-15.872-20.992-27.136-27.136-11.776-6.144-23.552-9.728-55.296-9.728H157.184c-32.256 0-43.52 3.584-55.296 9.728-11.776 6.144-20.992 15.872-27.136 27.136-6.144 11.776-9.728 23.552-9.728 55.296v659.968c0 32.256 3.584 43.52 9.728 55.296 6.144 11.776 15.872 20.992 27.136 27.136 11.776 6.144 23.552 9.728 55.296 9.728h351.744c15.872 2.048 28.16 15.36 28.16 31.744-0.512 16.384-12.8 30.208-28.672 32.256z" p-id="4736"></path><path d="M851.968 418.304m-32.256 0a32.256 32.256 0 1 0 64.512 0 32.256 32.256 0 1 0-64.512 0Z" p-id="4737"></path></svg>