<?xml version="1.0" standalone="no"?><!DOCTYPE svg PUBLIC "-//W3C//DTD SVG 1.1//EN" "http://www.w3.org/Graphics/SVG/1.1/DTD/svg11.dtd"><svg t="1606749661713" class="icon" viewBox="0 0 1024 1024" version="1.1" xmlns="http://www.w3.org/2000/svg" p-id="4477" xmlns:xlink="http://www.w3.org/1999/xlink" width="200" height="200"><defs><style type="text/css"></style></defs><path d="M512 57.586854c251.153722 0 454.782657 203.628935 454.782657 454.782657 0 251.153722-203.628935 454.782657-454.782657 454.782657-251.153722 0-454.782657-203.628935-454.782657-454.782657C57.217343 261.215789 260.846278 57.586854 512 57.586854M512 0.739022c-282.135791 0-511.630489 229.494698-511.630489 511.630489s229.494698 511.630489 511.630489 511.630489 511.630489-229.494698 511.630489-511.630489S794.135791 0.739022 512 0.739022L512 0.739022z" p-id="4478"></path><path d="M508.816521 569.728974c-2.046522 76.744573-18.134458 131.261644-48.491201 163.494365-30.186199 32.289569-66.568811 48.434353-108.920446 48.434353-48.491201 0-89.819575-19.66935-124.155665-59.00805-34.336091-39.3387-51.447288-102.382946-51.447288-189.189585 0-94.822184 16.599567-165.484039 49.912397-211.928718 33.31283-46.387831 76.176095-69.638594 128.703492-69.638594 44.398157 0 81.235552 16.656415 110.455338 49.912397 29.276634 33.31283 42.863265 80.269139 40.873591 140.81208L439.234775 442.617221c0-44.398157-7.105979-77.654139-21.147394-99.881641-14.211958-22.170655-35.359352-33.31283-63.612724-33.31283-32.289569 0-58.041637 16.656415-77.142508 49.969244C258.060734 392.647976 248.510298 448.699939 248.510298 527.377339c0 72.651529 9.550436 123.644035 28.765003 152.863821 19.100872 29.276634 43.829679 43.829679 74.186421 43.829679 22.170655 0 42.351635-10.573697 60.486093-31.777938 18.191306-21.204241 27.230112-62.077833 27.230112-122.620774L508.816521 569.672126z" p-id="4479"></path><path d="M893.27841 515.26875c0 94.879032-14.666741 163.039583-43.829679 204.311109-29.333481 41.44207-70.150225 62.077833-122.563926 62.077833-52.527397 0-93.855771-20.635763-124.155665-62.077833-30.299895-41.328374-45.421418-109.432077-45.421418-204.311109 0-94.822184 15.121523-162.414256 45.421418-202.833065 30.243047-40.305113 71.628268-60.542941 124.155665-60.542941 52.413701 0 93.287293 20.18098 122.563926 60.542941C878.611669 352.854494 893.27841 420.446566 893.27841 515.26875zM820.683728 515.26875c0-84.760118-9.095653-140.243602-27.230112-166.5073-18.134458-26.206851-40.361961-39.3387-66.568811-39.3387-26.320546 0-48.945983 13.131849-68.160551 39.3387-19.214567 26.263698-28.765003 81.747183-28.765003 166.5073 0 84.760118 9.550436 140.81208 28.765003 168.042192 19.214567 27.230112 41.840004 40.873591 68.160551 40.873591 26.206851 0 48.434353-13.586632 66.568811-40.873591C811.588075 656.080831 820.683728 600.028868 820.683728 515.26875z" p-id="4480"></path></svg>