<?xml version="1.0" standalone="no"?><!DOCTYPE svg PUBLIC "-//W3C//DTD SVG 1.1//EN" "http://www.w3.org/Graphics/SVG/1.1/DTD/svg11.dtd"><svg t="1606749397959" class="icon" viewBox="0 0 1024 1024" version="1.1" xmlns="http://www.w3.org/2000/svg" p-id="3584" xmlns:xlink="http://www.w3.org/1999/xlink" width="200" height="200"><defs><style type="text/css"></style></defs><path d="M660.37 469.3m-40 0a40 40 0 1 0 80 0 40 40 0 1 0-80 0Z" p-id="3585"></path><path d="M773.6 469.3m-40 0a40 40 0 1 0 80 0 40 40 0 1 0-80 0Z" p-id="3586"></path><path d="M355.85 517.63H237.08a20 20 0 0 1 0-40h102.2L430 386.94a20 20 0 0 1 28.29 28.28zM527.48 517.63H424a20 20 0 1 1 0-40h103.48a20 20 0 0 1 0 40z" p-id="3587"></path><path d="M974 390.34h-3.49V75.06a50 50 0 0 0-50-50H98.65a50 50 0 0 0-50 50v315.28A48.65 48.65 0 0 0 0 439v15a48.65 48.65 0 0 0 48.65 48.65v277.86a50 50 0 0 0 50 50h44.5v127.8a50 50 0 0 0 50 50h655.78a50 50 0 0 0 50-50v-127.8h21.58a50 50 0 0 0 50-50V502.67H974a50 50 0 0 0 50-50v-12.33a50 50 0 0 0-50-50zM593.68 789a6 6 0 0 1-0.67 0.84l-116.77 122.8a6.78 6.78 0 0 1-2.38 1.61 15.33 15.33 0 0 1-5.57 1.18 9.29 9.29 0 0 1-7-3 9.74 9.74 0 0 1-2.29-7.6 5.92 5.92 0 0 1 0.3-1.31L484.83 830h-46.66c-5.55 0-7.92-2.83-8.84-4.52a8.89 8.89 0 0 1 0.73-9.15c0.14-0.2 0.28-0.39 0.43-0.57l99.53-117a6.58 6.58 0 0 1 1.83-1.49 15 15 0 0 1 6.79-1.84 9.41 9.41 0 0 1 7.09 3c2.12 2.33 3 5.59 2.48 9.7a5.25 5.25 0 0 1-0.09 0.55l-13.31 65.73 51.74 0.33h0.46c5 0.38 7.07 3.44 7.71 4.75 2.14 4.29-0.26 8.4-1.04 9.51z m314.17-249.64H111.06V86.45h796.79z" p-id="3588"></path><path d="M168 149.28m28.38 0l623.24 0q28.38 0 28.38 28.38l0 83.24q0 28.38-28.38 28.38l-623.24 0q-28.38 0-28.38-28.38l0-83.24q0-28.38 28.38-28.38Z" p-id="3589"></path></svg>