<?xml version="1.0" standalone="no"?><!DOCTYPE svg PUBLIC "-//W3C//DTD SVG 1.1//EN" "http://www.w3.org/Graphics/SVG/1.1/DTD/svg11.dtd"><svg t="1606749589886" class="icon" viewBox="0 0 1024 1024" version="1.1" xmlns="http://www.w3.org/2000/svg" p-id="4101" xmlns:xlink="http://www.w3.org/1999/xlink" width="200" height="200"><defs><style type="text/css"></style></defs><path d="M783.497 998.773h-539.511c-94.891 0-172.1-82.057-172.1-182.886v-517.871c0-100.898 77.21-182.955 172.1-182.955h539.443c94.959 0 172.169 82.057 172.169 182.955v517.939c0.068 100.762-77.21 182.818-172.1 182.818zM243.985 135.541c-83.627 0-151.62 72.909-151.62 162.475v517.939c0 89.566 68.062 162.338 151.62 162.338h539.443c83.695 0 151.689-72.772 151.689-162.338v-517.939c0-89.566-67.994-162.475-151.689-162.475h-539.443zM508.791 871.319c-173.875 0-315.392-142.404-315.392-317.44s141.517-317.372 315.392-317.372 315.392 142.336 315.392 317.372c-0.068 175.036-141.517 317.44-315.392 317.44zM508.791 256.919c-162.611 0-294.912 133.188-294.912 296.96s132.301 296.96 294.912 296.96c162.543 0 294.844-133.188 294.844-296.96s-132.301-296.96-294.844-296.96zM238.319 34.917h551.458c33.86 0 61.235 53.316 61.235 53.316h-673.929c0 0.068 27.443-53.316 61.235-53.316zM345.361 587.877l183.706 13.858-83.49 219.614 228.215-283.58-166.98-33.382 80.691-219.75-242.142 303.241z" p-id="4102"></path></svg>