<?xml version="1.0" standalone="no"?><!DOCTYPE svg PUBLIC "-//W3C//DTD SVG 1.1//EN" "http://www.w3.org/Graphics/SVG/1.1/DTD/svg11.dtd"><svg t="1606749001184" class="icon" viewBox="0 0 1024 1024" version="1.1" xmlns="http://www.w3.org/2000/svg" p-id="2550" xmlns:xlink="http://www.w3.org/1999/xlink" width="200" height="200"><defs><style type="text/css"></style></defs><path d="M813.38 209.99l-60.34 60.34c61.95 61.79 100.3 147.25 100.3 241.67S815 691.87 753.04 753.67l60.34 60.34c77.4-77.24 125.29-184.03 125.29-302.01s-47.89-224.77-125.29-302.01zM511.37 512l60.64 60.64c15.63-15.47 25.32-36.91 25.32-60.64s-9.69-45.17-25.32-60.64L511.37 512z" p-id="2551"></path><path d="M692.7 330.67l-60.34 60.34c31.07 30.91 50.31 73.7 50.31 120.99 0 47.29-19.24 90.08-50.31 120.99l60.34 60.34C739.21 646.97 768 582.85 768 512c0-70.85-28.79-134.97-75.3-181.33zM297.83 298.67h-83.67c-0.46 0-0.83 0.37-0.83 0.83v83.67c0 0.46 0.37 0.83 0.83 0.83h83.67c0.46 0 0.83-0.37 0.83-0.83V299.5a0.822 0.822 0 0 0-0.83-0.83zM297.83 469.33h-83.67c-0.46 0-0.83 0.37-0.83 0.83v83.67c0 0.46 0.37 0.83 0.83 0.83h83.67c0.46 0 0.83-0.37 0.83-0.83v-83.67a0.828 0.828 0 0 0-0.83-0.83z" p-id="2552"></path><path d="M85.33 896h341.33V128H85.33v768z m85.34-682.67h170.67v597.33H170.67V213.33z" p-id="2553"></path><path d="M297.83 640h-83.67c-0.46 0-0.83 0.37-0.83 0.83v83.67c0 0.46 0.37 0.83 0.83 0.83h83.67c0.46 0 0.83-0.37 0.83-0.83v-83.67a0.822 0.822 0 0 0-0.83-0.83z" p-id="2554"></path></svg>