<?xml version="1.0" standalone="no"?><!DOCTYPE svg PUBLIC "-//W3C//DTD SVG 1.1//EN" "http://www.w3.org/Graphics/SVG/1.1/DTD/svg11.dtd"><svg t="1606749034793" class="icon" viewBox="0 0 1024 1024" version="1.1" xmlns="http://www.w3.org/2000/svg" p-id="2812" xmlns:xlink="http://www.w3.org/1999/xlink" width="200" height="200"><defs><style type="text/css"></style></defs><path d="M512 2.27555555C230.92337778 2.27555555 2.27555555 230.92337778 2.27555555 512s228.64782222 509.72444445 509.72444445 509.72444445 509.72444445-228.64782222 509.72444445-509.72444445S793.07662222 2.27555555 512 2.27555555z m0 946.63111112c-199.84839111 0-368.42154667-135.04056889-420.19498667-318.57777778H147.91111111a36.40888889 36.40888889 0 1 0 0-72.81777778H77.49632A437.23434667 437.23434667 0 0 1 75.09333333 512c0-9.21144889 0.80099555-18.24085333 1.38353778-27.30666667H147.91111111a36.40888889 36.40888889 0 0 0 0-72.81777778H87.14467555C132.58296889 219.16330667 305.59800889 75.09333333 512 75.09333333c206.4384 0 379.45344 144.06997333 424.89173333 336.78222222H876.08888889a36.40888889 36.40888889 0 1 0 0 72.81777778h71.43424c0.58254222 9.06581333 1.38353778 18.09521778 1.38353778 27.30666667 0 15.36455111-0.83740445 30.54705778-2.40298667 45.51111111H876.08888889a36.40888889 36.40888889 0 1 0 0 72.81777778h56.10609778C880.42154667 813.86609778 711.8848 948.90666667 512 948.90666667z" p-id="2813"></path><path d="M512 329.95555555c-100.37930667 0-182.04444445 81.66513778-182.04444445 182.04444445s81.66513778 182.04444445 182.04444445 182.04444445 182.04444445-81.66513778 182.04444445-182.04444445-81.66513778-182.04444445-182.04444445-182.04444445z m0 291.27111112c-60.22030222 0-109.22666667-49.00636445-109.22666667-109.22666667s49.00636445-109.22666667 109.22666667-109.22666667 109.22666667 49.00636445 109.22666667 109.22666667-49.00636445 109.22666667-109.22666667 109.22666667z" p-id="2814"></path><path d="M512 184.32m-36.40888889 0a36.40888889 36.40888889 0 1 0 72.81777778 0 36.40888889 36.40888889 0 1 0-72.81777778 0Z" p-id="2815"></path></svg>