<?xml version="1.0" standalone="no"?><!DOCTYPE svg PUBLIC "-//W3C//DTD SVG 1.1//EN" "http://www.w3.org/Graphics/SVG/1.1/DTD/svg11.dtd"><svg t="1606748972933" class="icon" viewBox="0 0 1024 1024" version="1.1" xmlns="http://www.w3.org/2000/svg" p-id="2420" xmlns:xlink="http://www.w3.org/1999/xlink" width="200" height="200"><defs><style type="text/css"></style></defs><path d="M512 540.62723203c-33.14732108 0-61.77455393-27.12053595-61.77455393-61.77455311 0-33.14732108 27.12053595-61.77455393 61.77455393-61.77455392 33.14732108 0 61.77455393 27.12053595 61.77455393 61.77455392s-27.12053595 61.77455393-61.77455393 61.77455311zM649.109375 528.57366095l-69.30803595-49.72098202 69.30803595-49.72098285v31.640625h90.40178595v37.66741095h-90.40178595zM374.890625 530.08035703v-31.640625h-90.40178595v-37.66741095h90.40178595v-31.640625l69.30803595 49.72098285zM644.58928595 352.29017893c-13.56026798 0-24.10714297-10.546875-24.10714297-24.10714299 0-13.56026798 10.546875-24.10714297 24.10714297-24.10714296 13.56026798 0 24.10714297 10.546875 24.10714297 24.10714296 0 13.56026798-9.04017892 24.10714297-24.10714297 24.10714299 1.50669608 1.50669608 1.50669608 1.50669608 0 0zM379.41071405 352.29017893c-13.56026798 0-24.10714297-10.546875-24.10714297-24.10714299 0-13.56026798 10.546875-24.10714297 24.10714297-24.10714296 13.56026798 0 24.10714297 10.546875 24.10714297 24.10714296 0 13.56026798-10.546875 25.61383905-24.10714297 24.10714299 0 1.50669608 0 1.50669608 0 0z" p-id="2421"></path><path d="M849.5 132.3125h-676.50669608c-22.60044608 0-42.1875 19.58705392-42.1875 42.1875v676.50669608c0 22.60044608 19.58705392 42.1875 42.1875 42.1875h676.50669608c22.60044608 0 42.1875-19.58705392 42.1875-42.1875v-676.50669608c0-24.10714297-18.08035703-42.1875-42.1875-42.1875z m-244.08482107 622.265625v52.734375c-1.50669608 37.66741095-33.14732108 67.80133905-70.81473285 67.80133905-22.60044608 0-42.1875-10.546875-55.74776715-25.61383905l-55.74776798-55.74776798c-7.53348202-7.53348202-7.53348202-18.08035703 0-25.61383905s18.08035703-7.53348202 25.61383905 0l19.58705393 19.5870531v-122.04241012c0-9.04017892 7.53348202-16.57366095 16.57366012-16.57366095 9.04017892 0 16.57366095 7.53348202 16.57366095 16.57366095v49.72098203c0-9.04017892 7.53348202-16.57366095 16.57366095-16.57366095 9.04017892 0 16.57366095 7.53348202 16.57366013 16.57366095v12.05357107c0-9.04017892 7.53348202-16.57366095 16.57366095-16.57366012 9.04017892 0 16.57366095 7.53348202 16.57366095 16.57366012v19.58705393c0-9.04017892 7.53348202-16.57366095 16.57366095-16.57366095 9.04017892 0 16.57366095 7.53348202 16.57366012 16.57366095v7.53348202z m155.18973202-125.05580393h-497.2098219c-22.60044608 0-42.1875-19.58705392-42.1875-42.1875v-298.32589214c0-22.60044608 19.58705392-42.1875 42.1875-42.1875h495.703125c22.60044608 0 42.1875 19.58705392 42.1875 42.1875l1.5066969 298.32589215c0 22.60044608-19.58705392 42.1875-42.1875 42.18749999z" p-id="2422"></path></svg>