<?xml version="1.0" standalone="no"?><!DOCTYPE svg PUBLIC "-//W3C//DTD SVG 1.1//EN" "http://www.w3.org/Graphics/SVG/1.1/DTD/svg11.dtd"><svg t="1606749083205" class="icon" viewBox="0 0 1024 1024" version="1.1" xmlns="http://www.w3.org/2000/svg" p-id="3074" xmlns:xlink="http://www.w3.org/1999/xlink" width="200" height="200"><defs><style type="text/css"></style></defs><path d="M443.84256 218.61944889C444.42510222 156.86997334 394.90901333 107.35388445 331.41191111 106.1888c-62.33201778-1.16508445-114.17827555 47.76846222-114.76081778 108.35285334-0.58254222 62.33201778 49.51608889 112.43064889 112.43064889 113.01319111 61.74947555 0.58254222 114.76081778-48.93354667 114.76081778-108.93539556z" p-id="3075"></path><path d="M923.27480889 361.92483556c-1.74762667-8.15559111-1.74762667-16.31118222-1.74762667-25.04931556V218.61944889c-7.57304889-1.16508445-9.32067555-1.74762667-11.06830222-1.74762667-10.48576-0.58254222-15.72864 0-26.79694222-1.16508444-4.07779555 0-19.22389333-23.88423111-26.2144-25.04931556 0.58254222 0.58254222-18.05880889 25.63185778-20.97152 25.63185778-27.96202667 0.58254222-45.43829333 0-73.40032 0-2.91271111 0-30.87473778-22.13660445-37.86524445-26.2144-4.66033778 5.24288-8.73813333 20.97152-15.14609778 27.96202667-6.40796445 0.58254222-16.31118222 0.58254222-25.63185777 1.16508445V379.98364445c0 6.40796445 4.07779555 13.39847111 6.40796444 19.80643555 9.32067555 25.63185778 35.53507555 43.10812445 61.74947556 59.41930667 14.56355555 9.32067555 20.97152 18.64135111 18.05880889 31.45728-2.33016889 10.48576 2.33016889 18.64135111 16.89372444 23.88423111 5.24288 1.74762667 9.32067555 8.73813333 8.73813334 13.39847111-1.16508445 9.90321778-13.39847111 20.38897778-18.0588089 29.70965333-23.30168889 48.93354667-19.80643555 75.14794667-22.13660444 113.01319112-4.66033778 82.13845333-4.07779555 153.79114667-4.66033778 235.9296 0 13.39847111 2.33016889 22.71914667-8.73813333 31.45728-7.57304889 6.40796445-16.31118222 8.15559111-25.04931555 8.15559111-36.11761778-1.74762667-32.62236445-36.11761778-32.62236445-56.50659556 0.58254222-64.07964445 2.91271111-128.15928889 2.91271111-192.23893333 0-54.75896889-1.16508445-108.93539555-2.91271111-163.69436444-0.58254222-24.46677333-15.14609778-63.49710222-43.69066667-76.31303112-9.32067555-4.07779555-18.64135111-5.82542222-27.96202666-5.24288-46.60337778 5.24288-60.58439111 70.48760889-60.58439112 70.48760889 0 72.81777778 0.58254222 267.38688-0.58254222 340.20465778-0.58254222 26.2144-13.98101333 52.4288-29.70965333 76.31303111-16.89372445 25.63185778-42.52558222 34.95253333-84.46862222 37.86524444-43.69066667 2.91271111-65.24472889-2.33016889-87.96387556-27.96202666-19.22389333-21.55406222-16.31118222-47.18592-1.16508444-66.40981334 12.23338667-15.72864 0-29.12711111 1.74762667-44.27320888 0.58254222-4.07779555-1.16508445-8.73813333 0.58254222-12.23338667 1.74762667-4.66033778 5.24288-10.48576 10.48576-12.23338667 23.30168889-8.73813333 47.18592-16.89372445 70.48760888-25.04931555 13.39847111-4.66033778 27.96202667-7.57304889 40.19541334-13.39847111 7.57304889-3.49525333 15.72864-10.48576 16.89372444-16.89372445 7.57304889-36.70016 15.72864-73.98286222 19.22389334-111.26556444 8.73813333-89.12896 19.22389333-178.84046222 22.71914666-268.55196445 3.49525333-99.03217778 9.90321778-198.64689778-4.66033778-297.67907555-4.66033778-30.87473778-14.56355555-41.94304-57.67168-50.09863111-104.8576-20.38897778-209.13265778-20.97152-312.2426311 5.82542222-15.72864 4.07779555-26.2144 11.06830222-29.12711112 23.30168889-3.49525333 14.56355555-6.40796445 28.54456889-8.15559111 43.10812444-3.49525333 26.2144-5.82542222 53.01134222-8.15559111 79.22574223-2.33016889 29.12711111-4.66033778 58.25422222-4.07779556 86.7987911 1.74762667 72.23523555 4.66033778 144.47047111 7.5730489 216.70570667 0.58254222 8.73813333 3.49525333 17.47626667 4.66033777 26.2144 4.07779555 25.04931555 8.15559111 50.09863111 11.65084445 74.56540445 2.91271111 23.88423111 5.24288 47.76846222 8.15559111 71.07015111 3.49525333 25.63185778 7.57304889 51.26371555 11.06830222 77.47811555 2.91271111 20.38897778 5.82542222 40.77795555 37.28270222 49.51608889 16.31118222 4.66033778 33.78744889 8.15559111 50.68117333 12.23338667 34.95253333 8.73813333 40.19541333 14.56355555 40.19541334 40.19541333v25.04931556c0 3.49525333 0 8.15559111 2.91271111 10.48576 16.89372445 12.81592889 19.80643555 30.29219555 22.71914667 46.02083555 6.40796445 30.29219555 24.46677333 54.17642667 60.00184888 70.48760889 61.74947555 29.12711111 172.43249778 1.74762667 193.40401778-50.09863111 11.65084445-29.12711111 18.64135111-60.58439111 19.22389334-90.87658666 1.74762667-58.25422222 1.74762667-205.05486222 0.58254222-288.94094223-0.58254222-71.07015111 30.29219555-80.39082667 41.94304-80.39082667 19.80643555-1.16508445 26.2144 18.64135111 31.45728 26.2144 15.72864 22.13660445 11.06830222 36.70016 11.06830222 60.58439112 0.58254222 98.44963555-1.74762667 196.89927111-1.74762666 295.34890666 0 26.79694222-3.49525333 52.4288 5.24288 79.80828445 4.66033778 15.14609778 29.70965333 25.63185778 49.51608888 25.63185777 21.55406222 0 30.87473778-4.07779555 42.52558222-15.72864 16.89372445-16.89372445 18.05880889-36.11761778 18.64135112-55.3415111 1.16508445-75.73048889-4.07779555-152.04352 1.74762666-227.19146667 6.40796445-76.31303111 15.14609778-93.20675555 37.28270222-107.18776889 20.38897778-12.81592889 11.06830222-39.61287111 11.65084445-39.61287111 22.71914667-9.32067555 6.99050667-25.04931555 6.40796445-39.61287111 0-7.57304889 2.91271111-11.65084445 12.23338666-16.31118222 52.4288-23.88423111 86.21624889-56.50659555 78.06065778-103.69251556zM184.61127111 214.54165334C185.77635555 138.22862222 251.60362667 76.47914667 331.41191111 77.06168889c81.55591111 1.16508445 145.63555555 64.07964445 144.47047111 142.14030223C474.71729778 293.76739556 407.72494222 356.68195556 331.41191111 356.09941334 248.69091555 355.51687112 183.44618667 292.60231112 184.61127111 214.54165334z m137.47996444 267.38688V426.58702222c0-4.07779555 4.07779555-6.99050667 9.90321778-6.99050666 2.91271111 0 5.24288 0.58254222 6.99050667 1.74762666 1.74762667 1.16508445 2.91271111 2.91271111 2.91271111 4.66033778v55.34151112c0 4.07779555-4.07779555 6.99050667-9.90321778 6.99050666-5.24288 0.58254222-9.90321778-2.33016889-9.90321778-6.40796444z m489.33546667-136.89742222c-21.55406222 0-29.70965333-9.32067555-30.29219555-20.97152-1.16508445-12.81592889 10.48576-20.97152 27.96202666-20.97152s28.54456889 8.15559111 28.54456889 20.97152c0 12.23338667-9.32067555 20.38897778-26.2144 20.97152z" p-id="3076"></path></svg>