<?xml version="1.0" standalone="no"?><!DOCTYPE svg PUBLIC "-//W3C//DTD SVG 1.1//EN" "http://www.w3.org/Graphics/SVG/1.1/DTD/svg11.dtd"><svg t="1606749124108" class="icon" viewBox="0 0 1024 1024" version="1.1" xmlns="http://www.w3.org/2000/svg" p-id="3329" xmlns:xlink="http://www.w3.org/1999/xlink" width="200" height="200"><defs><style type="text/css"></style></defs><path d="M512 2.27555555c-224.86129778 0-408.36209778 175.92775111-408.36209778 392.05091556 0 202.72469333 161.36419555 370.49685333 367.58414223 390.30328889v80.39082667H389.66613333c-22.13660445-0.58254222-40.19541333 16.89372445-40.77795555 39.03032888H103.63790222c-14.56355555-0.58254222-27.96202667 6.99050667-36.11761777 19.22389334-7.57304889 12.23338667-7.57304889 27.37948445 0 39.61287111s21.55406222 19.80643555 36.11761777 19.22389333H348.88817778c0 21.55406222 18.05880889 39.03032889 40.77795555 39.03032889h244.66773334c22.71914667 0 40.77795555-17.47626667 40.77795555-39.03032889h245.25027556c14.56355555 0.58254222 27.96202667-6.99050667 36.11761777-19.22389333 7.57304889-12.23338667 7.57304889-27.37948445 0-39.61287111s-21.55406222-19.80643555-36.11761777-19.22389334H675.11182222c-0.58254222-22.13660445-18.64135111-39.61287111-40.77795555-39.03032888h-81.55591112v-80.39082667c206.21994667-19.80643555 367.58414222-186.99605333 367.58414223-390.30328889 0-216.12316445-183.5008-392.05091555-408.36209778-392.05091556z m0 70.4876089c185.24842667 0 334.96177778 143.30538667 334.96177778 321.56330666 0 176.51029333-146.80064 319.23313778-330.30144 321.56330667-3.49525333-0.58254222-6.40796445-0.58254222-9.90321778 0-182.91825778-2.91271111-329.71889778-145.05301333-329.71889778-321.56330667 0-178.25792 149.71335111-321.56330667 334.96177778-321.56330666z" p-id="3330"></path><path d="M773.56145778 440.92984889c-16.31118222 0-29.70965333-13.39847111-29.70965333-29.70965334 0-128.15928889-104.27505778-232.43434667-232.43434667-232.43434666s-231.85180445 104.8576-231.85180445 233.01688889c0 16.31118222-13.39847111 29.70965333-29.70965333 29.70965333s-29.70965333-13.39847111-29.70965333-29.70965333c0-78.06065778 30.29219555-150.87843555 85.63370666-205.63740445s128.15928889-85.63370667 205.63740445-85.63370666 150.87843555 30.29219555 205.63740444 85.63370666 85.63370667 128.15928889 85.63370667 205.63740445c0.58254222 16.31118222-12.81592889 29.12711111-29.12711111 29.12711111z" p-id="3331"></path><path d="M451.99815111 428.69646222c0 33.20490667 26.79694222 60.00184889 60.00184889 60.00184889s60.00184889-26.79694222 60.00184889-60.00184889c0-33.20490667-26.79694222-60.00184889-60.00184889-60.00184889S451.99815111 395.49155555 451.99815111 428.69646222z" p-id="3332"></path><path d="M512 428.69646222L394.90901333 311.60547555M512 457.82357333c-7.57304889 0-15.14609778-2.91271111-20.97152-8.73813333l-117.09098667-116.50844445c-11.65084445-11.65084445-11.65084445-30.29219555 0-41.94304s30.29219555-11.65084445 41.94304 0l117.09098667 117.09098667c11.65084445 11.65084445 11.65084445 30.29219555 0 41.94304-5.82542222 5.82542222-13.39847111 8.15559111-20.97152 8.15559111z" p-id="3333"></path></svg>