<?xml version="1.0" standalone="no"?><!DOCTYPE svg PUBLIC "-//W3C//DTD SVG 1.1//EN" "http://www.w3.org/Graphics/SVG/1.1/DTD/svg11.dtd"><svg t="1606749538210" class="icon" viewBox="0 0 1024 1024" version="1.1" xmlns="http://www.w3.org/2000/svg" p-id="3976" xmlns:xlink="http://www.w3.org/1999/xlink" width="200" height="200"><defs><style type="text/css"></style></defs><path d="M928.73775999 187.64049067H89.04845631c-57.99531498 0-87.40722369 24.44088298-87.40722492 73.3226477v193.87005155l153.68758402 153.27333097h17.39859437V636.27567408a19.46985601 19.46985601 0 0 0 17.81284621 21.12686459 19.46985601 19.46985601 0 0 0 18.64135111-21.12686459v-27.3406483h20.71261275a1588.24311467 1588.24311467 0 0 0 65.45185542 171.50043022c12.84181925 19.88410785 133.3892231 22.78387317 204.22635732 22.78387317 33.96868384 0 204.22635732 0 221.21069986-21.95536827a942.42386132 942.42386132 0 0 0 59.65232355-172.32893512h29.82616178V636.27567408a19.46985601 19.46985601 0 0 0 17.81284621 21.12686459 19.46985601 19.46985601 0 0 0 18.22709926-21.12686459v-27.3406483h14.49882906l154.10183585-151.61632237 2.89976532-3.72827023V259.30612978c0-48.88176473-31.06891852-73.3226477-88.64998043-73.3226477zM364.52619969 719.12612386l-74.15115138-7.45654045V636.27567408l74.15115138 8.69929717z m36.03994548 0l10.35630699-73.3226477h189.72752828l8.69929718 73.3226477zM553.42522429 467.26075733v-74.56540444h52.61003616v198.01257362H553.42522429v-72.49414281h-88.2357286v72.49414281h-41.42522428v-199.6695822h41.42522428v74.56540444z m165.70089957 243.16606935l-67.108864 8.69929718v-74.56540445L719.12612386 636.27567408z m265.12143762-368.27024832h-952.78016831v-18.64135111h952.78016831z" p-id="3977"></path></svg>