<?xml version="1.0" standalone="no"?><!DOCTYPE svg PUBLIC "-//W3C//DTD SVG 1.1//EN" "http://www.w3.org/Graphics/SVG/1.1/DTD/svg11.dtd"><svg t="1606749177814" class="icon" viewBox="0 0 1024 1024" version="1.1" xmlns="http://www.w3.org/2000/svg" p-id="3457" xmlns:xlink="http://www.w3.org/1999/xlink" width="200" height="200"><defs><style type="text/css"></style></defs><path d="M415.904 635.248l-14.064-187.728c-1.408-17.76-15.808-31.44-33.152-31.52h-63.44C286.88 416 272 431.28 272 450.128c0 2.592 0.288 5.152 0.848 7.68l42.208 187.728c3.424 15.552 16.928 26.56 32.464 26.464h35.232C401.12 672 416 656.72 416 637.856c0-0.864-0.032-1.728-0.096-2.608z m-68.384 2.624l-42.272-187.744h63.44l14.08 187.744H347.52zM561.968 416.096a31.2 31.2 0 0 0-2.496-0.096h-94.96C446.56 416 432 431.28 432 450.128c0 0.88 0.032 1.76 0.096 2.624l13.76 187.728c1.376 17.76 15.456 31.44 32.416 31.52h67.456c16.96-0.08 31.04-13.76 32.416-31.52l13.76-187.728c1.376-18.8-12.032-35.2-29.936-36.64z m-16.24 221.76h-67.456l-13.792-187.728H559.472l-13.76 187.744zM726.192 416.864a32.4 32.4 0 0 0-7.392-0.864h-63.472c-17.344 0.08-31.76 13.76-33.168 31.52l-14.064 187.728c-1.408 18.8 12.304 35.2 30.624 36.64 0.848 0.08 1.696 0.112 2.544 0.112h35.248c15.52 0.064 28.992-10.944 32.416-26.464l42.208-187.744c4.128-18.368-7.04-36.688-24.944-40.928z m-49.68 221.008h-35.248l14.064-187.744h63.456l-42.272 187.744z" p-id="3458"></path><path d="M680.416 854.32c-5.2-4.16-8.416-13.328-8.416-23.904 0-10.592 3.216-19.744 8.416-23.904 7.52-6.032 9.84-18.88 5.2-28.64-4.64-9.76-14.528-12.816-22.032-6.752-14.768 11.872-23.584 34.048-23.584 59.296 0 25.248 8.8 47.424 23.584 59.28 5.2 4.16 8.416 13.328 8.416 23.904 0 10.592-3.216 19.744-8.416 23.92-7.52 6.032-9.84 18.864-5.2 28.64 4.688 9.808 14.576 12.736 22.032 6.72C695.2 961.056 704 938.864 704 913.6c0-25.232-8.8-47.424-23.584-59.28zM520.416 854.32c-5.2-4.16-8.416-13.328-8.416-23.904 0-10.592 3.216-19.744 8.416-23.904 7.52-6.032 9.84-18.88 5.2-28.64-4.672-9.76-14.544-12.816-22.032-6.752-14.768 11.872-23.584 34.048-23.584 59.296 0 25.248 8.8 47.424 23.584 59.28 5.2 4.16 8.416 13.328 8.416 23.904 0 10.592-3.216 19.744-8.416 23.92-7.52 6.032-9.84 18.864-5.2 28.64 4.688 9.808 14.576 12.736 22.032 6.72C535.2 961.056 544 938.864 544 913.6c0-25.232-8.8-47.424-23.584-59.28zM360.416 854.32c-5.2-4.16-8.416-13.328-8.416-23.904 0-10.592 3.216-19.744 8.416-23.904 7.52-6.032 9.84-18.88 5.2-28.64-4.64-9.76-14.544-12.816-22.032-6.752-14.768 11.872-23.584 34.048-23.584 59.296 0 25.248 8.8 47.424 23.584 59.28 5.2 4.16 8.416 13.328 8.416 23.904 0 10.592-3.216 19.744-8.416 23.92-7.52 6.032-9.84 18.864-5.2 28.64 4.688 9.808 14.576 12.736 22.032 6.72C375.2 961.056 384 938.864 384 913.6c0-25.232-8.8-47.424-23.584-59.28z" p-id="3459"></path><path d="M714.112 60a20 20 0 0 1 0 40l-646.848 0.016-0.72 0.08a12 12 0 0 0-10.448 13.376l27.536 224a12 12 0 0 0 11.92 10.528h834.928a12 12 0 0 0 11.888-10.416l29.84-224a12 12 0 0 0-11.888-13.584H797.152a20 20 0 1 1 0-40H960.32a52 52 0 0 1 51.536 58.864l-29.824 224a52 52 0 0 1-51.552 45.136h-87.792l1.12 0.304-79.056 307.984a52 52 0 0 1-50.368 39.072H308.048a52 52 0 0 1-50.24-38.624L175.52 388h-80a52 52 0 0 1-51.168-42.784l-0.432-2.88-27.536-224A52 52 0 0 1 68 60z m88.464 328H216.944l79.52 298.448a12 12 0 0 0 9.792 8.784l1.792 0.128h406.336a12 12 0 0 0 11.616-9.024l76.576-298.336z" p-id="3460"></path></svg>