<?xml version="1.0" standalone="no"?><!DOCTYPE svg PUBLIC "-//W3C//DTD SVG 1.1//EN" "http://www.w3.org/Graphics/SVG/1.1/DTD/svg11.dtd"><svg t="1606749416788" class="icon" viewBox="0 0 1024 1024" version="1.1" xmlns="http://www.w3.org/2000/svg" p-id="3713" xmlns:xlink="http://www.w3.org/1999/xlink" width="200" height="200"><defs><style type="text/css"></style></defs><path d="M501.58887367 405.93970631c22.2042715 0 40.24385877-18.05239523 40.24385878-40.23920185 0-22.19262749-18.04075235-40.24502272-40.24385878-40.24502272-22.18680661 0-40.22872291 18.05239523-40.22872292 40.24502272C461.36015075 387.88731221 479.40206706 405.93970631 501.58887367 405.93970631z" p-id="3714"></path><path d="M374.6620837 207.4553435l260.5354678 0c0.21073693 0 0.42263893-0.01164288 0.633377-0.02910777 7.40375211-0.61591211 7.40375211-6.92988359 7.40375211-17.3840896 0-58.02730155-35.51914894-108.57633565-87.55498781-129.0947072 0.12923677-1.11772331 0.15252253-2.30181091 0.15252253-3.41953422 0-27.1827968-21.95161885-49.30673095-48.93182863-49.30673095-0.19909405 0-0.38654635 0.03609259-0.58564039 0.03609259-0.10595101 0-0.19909405-0.03609259-0.29223822-0.03609259-0.32833081 0-0.62173411 0.07684323-0.93725696 0.09314304-26.11863097 0.97917269-47.09806307 22.73286144-47.09806308 49.41268195 0 0.63221191 0.01164288 1.30633955 0.04657152 1.97930212-53.52380757 19.68590051-91.39599701 71.84515527-91.39599701 130.67581895C366.63776256 200.29725696 366.63776256 207.4553435 374.6620837 207.4553435z" p-id="3715"></path><path d="M743.14749725 455.90775694c47.37283755 0 85.90168861-38.23661397 85.9016886-85.22872604 0-46.99793408-38.6930176-85.23338411-86.24282738-85.23338411-5.89249763 0-13.98667605 0-13.98667605 8.22341632l0 154.02226347C728.81968128 455.90775694 736.76133831 455.90775694 743.14749725 455.90775694z" p-id="3716"></path><path d="M275.49907513 455.90775694c6.40245874 0 8.39922461-4.91332494 8.55174713-7.51436003 0.08150016-1.27723179-0.21073693-3.16921059-1.31216043-4.85627449L282.73866069 295.50166357c0.31086706-1.1596379 0.36908146-2.39728299 0.12341476-3.61979335-0.30504505-1.51125447-1.87451506-6.43738738-8.79741383-6.43738737-46.13752035 0-80.9068635 36.64269426-80.90686351 85.2333841C193.15663531 418.47450738 229.32080413 455.90775694 275.49907513 455.90775694z" p-id="3717"></path><path d="M782.36677575 920.25190969L648.07232739 920.25190969 648.07232739 458.20374699l12.34734877 0 0 20.30181262c0 4.40452779 3.56157895 7.97192875 7.96494279 7.97192874l28.27956224 0c4.40452779 0 7.97658567-3.56739982 7.97658567-7.97192874L704.64076686 266.40942307c0-4.40452779-3.57205675-7.97774962-7.97658567-7.97774961l-28.27956224 0c-4.40336384 0-7.96494279 3.57322183-7.96494279 7.97774961l0 20.31229156-12.34734877 0 0-48.59651072c0-4.40452779-3.56157895-7.96610674-7.96610673-7.96610674L371.45212245 230.15909717c-4.40452779 0-7.9893925 3.56157895-7.9893925 7.96610674l0 48.59651072-12.33454193 0 0-20.31229156c0-4.40452779-3.56157895-7.97774962-7.96610674-7.97774961l-28.27257629 0c-4.41034979 0-7.96610674 3.57322183-7.96610673 7.97774961l0 212.09613654c0 4.40452779 3.55575694 7.97192875 7.96610673 7.97192874l28.27257629 0c4.40452779 0 7.96610674-3.56739982 7.96610674-7.97192874l0-20.30181262 12.33454193 0 0 462.04932778L258.81821981 920.25307477c-25.78331421 0-46.6824101 20.89909589-46.6824101 46.6824101s20.89909589 46.6824101 46.6824101 46.6824101L782.36677575 1013.61789497c25.78331421 0 46.6824101-20.89909589 46.6824101-46.6824101S808.15008995 920.25190969 782.36677575 920.25190969zM501.58887367 296.80683805c37.99444025 0 68.89832448 30.89689827 68.89832448 68.88085958 0 37.97814045-30.90271915 68.87503758-68.89832448 68.87503759-37.98978333 0-68.86921671-30.89689827-68.86921671-68.87503759C432.71965696 327.70373632 463.59909035 296.80683805 501.58887367 296.80683805z" p-id="3718"></path></svg>