<?xml version="1.0" standalone="no"?><!DOCTYPE svg PUBLIC "-//W3C//DTD SVG 1.1//EN" "http://www.w3.org/Graphics/SVG/1.1/DTD/svg11.dtd"><svg t="1606749475695" class="icon" viewBox="0 0 1024 1024" version="1.1" xmlns="http://www.w3.org/2000/svg" p-id="3842" xmlns:xlink="http://www.w3.org/1999/xlink" width="200" height="200"><defs><style type="text/css"></style></defs><path d="M490.628 4.658c-207.921 0-376.203 166.906-376.203 373.141 0 101.903 41.263 194.992 108.418 262.395l267.784 263.205L757.609 639.39c67.158-67.404 108.41-159.688 108.41-262.395 0.807-205.431-167.472-372.337-375.391-372.337z" fill="#F7931E" p-id="3843"></path><path d="M832.656 373.719c0 186.909-152.768 338.433-341.217 338.433-188.438 0-341.208-151.523-341.208-338.433 0-186.908 152.77-338.433 341.208-338.433 188.45 0 341.217 151.525 341.217 338.433z" fill="#FFFFFF" p-id="3844"></path><path d="M491.015 1018.938c-135.564 0-281.651-28.161-281.651-89.851 0-43.348 69.854-65.812 127.589-76.88 9.609-1.668 18.792 4.621 20.623 14.129 1.827 9.505-4.372 18.707-13.926 20.67-74.639 13.922-99.518 34.489-99.518 41.763 0 16.133 83.569 54.413 245.606 54.413 162.04 0 245.61-37.966 245.61-54.413 0-7.595-26.15-28.475-103.348-42.712-9.678-1.761-16.096-10.959-14.35-20.564 1.926-9.501 11.084-15.788 20.732-14.238 60.604 11.074 132.691 33.224 132.691 77.515 1.277 62.006-144.495 90.168-280.058 90.168z m0 0" fill="#F7931E" p-id="3845"></path><path d="M588.753 237.382c-20.618-11.569-46.97-4.42-58.693 15.908l-47.692 82.508c-25.546 1.676-49.741 15.465-63.333 38.956-21.418 37.096-8.245 84.279 29.414 105.436 37.722 21.072 85.696 8.118 107.113-29.003 13.605-23.523 13.308-51.037 1.698-73.5l47.628-82.502c11.779-20.337 4.54-46.248-16.135-57.803z m-47.261 96.902l-34.299 59.433c8.511 8.517 10.663 21.859 4.335 32.82-7.603 13.2-24.6 17.754-38.02 10.268-13.365-7.48-18.031-24.201-10.437-37.391 6.336-10.909 19.049-15.941 30.873-13.129l34.365-59.346a7.611 7.611 0 0 1 10.341-2.863c3.684 2.092 4.936 6.646 2.842 10.208z m0 0M555.437 199.135a7.185 7.185 0 0 1-3.365-4.386c-1.05-3.852 1.234-7.831 5.097-8.871 40.055-10.839 81.604 12.437 92.646 51.873a7.243 7.243 0 0 1-5.026 8.922 7.234 7.234 0 0 1-8.924-5.019c-8.895-31.82-42.507-50.58-74.913-41.805a7.234 7.234 0 0 1-5.515-0.714z m0 0" fill="#F7931E" p-id="3846"></path><path d="M544.611 160.332a7.207 7.207 0 0 1-3.366-4.381 7.24 7.24 0 0 1 5.1-8.883c61.78-16.688 125.878 19.195 142.877 80.013a7.24 7.24 0 0 1-5.031 8.922c-3.853 1.075-7.851-1.179-8.921-5.019-14.862-53.186-71.011-84.568-125.15-69.932a7.267 7.267 0 0 1-5.509-0.72z m0 0M422.812 523.83c-65.688-37.928-88.28-122.226-50.35-187.919a7.243 7.243 0 0 1 9.893-2.653 7.236 7.236 0 0 1 2.644 9.896c-33.934 58.776-13.72 134.201 45.054 168.14 58.785 33.93 134.201 13.724 168.143-45.053a7.24 7.24 0 0 1 9.89-2.654c3.456 2.003 4.656 6.426 2.653 9.891-37.931 65.694-122.234 88.277-187.927 50.352z m0 0" fill="#F7931E" p-id="3847"></path><path d="M687.715 326.098c-1.124-7.432-7.696-13.143-15.658-13.143-8.753 0-15.847 6.891-15.847 15.392 0 1.156 0.141 2.28 0.39 3.363l-0.031 0.018c0.039 0.093 0.074 0.19 0.111 0.285 0.316 1.256 0.78 2.46 1.394 3.574a178.842 178.842 0 0 1 11.533 63.216c0 99.098-80.646 179.746-179.742 179.746-99.143 0-179.785-80.648-179.785-179.746 0-93.238 71.395-170.139 162.387-178.902v-0.033c8.175-0.274 14.72-6.708 14.72-14.629 0-8.096-6.831-14.656-15.255-14.656-0.1 0-0.196 0.012-0.295 0.014v-0.014c-0.094 0.006-0.187 0.02-0.281 0.027a16 16 0 0 0-2.047 0.204C362.532 201.34 279.063 291.297 279.063 400.846c0 116.621 94.542 211.162 211.16 211.162 116.619 0 211.162-94.541 211.162-211.162 0-26.341-4.872-51.514-13.67-74.748z" fill="#F7931E" p-id="3848"></path></svg>