<?xml version="1.0" standalone="no"?><!DOCTYPE svg PUBLIC "-//W3C//DTD SVG 1.1//EN" "http://www.w3.org/Graphics/SVG/1.1/DTD/svg11.dtd"><svg t="1606748904601" class="icon" viewBox="0 0 1024 1024" version="1.1" xmlns="http://www.w3.org/2000/svg" p-id="2288" xmlns:xlink="http://www.w3.org/1999/xlink" width="200" height="200"><defs><style type="text/css"></style></defs><path d="M512 1021.72444445c281.51352889 0 509.72444445-228.21091555 509.72444445-509.72444445S793.51352889 2.27555555 512 2.27555555 2.27555555 230.48647111 2.27555555 512s228.21091555 509.72444445 509.72444445 509.72444445z m0-54.61333334c-251.34876445 0-455.11111111-203.76234667-455.11111111-455.11111111s203.76234667-455.11111111 455.11111111-455.11111111 455.11111111 203.76234667 455.11111111 455.11111111-203.76234667 455.11111111-455.11111111 455.11111111z" p-id="2289"></path><path d="M845.32337778 656.60700445c24.90368-42.67121778 38.14741333-90.5216 38.14741333-140.09230223 0-52.77468445-15.00046222-103.54688-43.02620444-148.16597333a27.30666667 27.30666667 0 1 0-46.24839112 29.04519111c22.62812445 36.02659555 34.66126222 76.75904 34.66126223 119.12078222 0 39.78581333-10.61319111 78.15168-30.69269333 112.56718223a27.30666667 27.30666667 0 0 0 47.16771555 27.52512zM720.54101333 602.76736a188.27946667 188.27946667 0 0 0 1.21059556-176.07338667 18.20444445 18.20444445 0 0 0-32.33109334 16.74808889 151.87968 151.87968 0 0 1-0.97393777 142.14940445 18.20444445 18.20444445 0 1 0 32.09443555 17.17589333zM371.94410667 840.77226667c42.67121778 24.90368 90.5216 38.14741333 140.09230222 38.14741333 52.77468445 0 103.54688-15.00046222 148.16597333-43.02620445a27.30666667 27.30666667 0 1 0-29.04519111-46.2483911c-36.02659555 22.62812445-76.75904 34.66126222-119.12078222 34.66126222-39.78581333 0-78.15168-10.61319111-112.56718222-30.69269334a27.30666667 27.30666667 0 0 0-27.52512 47.16771556zM425.78375111 715.98990222a188.27946667 188.27946667 0 0 0 176.07338667 1.21059556 18.20444445 18.20444445 0 0 0-16.74808889-32.33109333 151.87968 151.87968 0 0 1-142.14940444-0.97393778 18.20444445 18.20444445 0 1 0-17.17589334 32.09443555zM661.15811555 183.22773333c-42.67121778-24.90368-90.5216-38.14741333-140.09230222-38.14741333-52.77468445 0-103.54688 15.00046222-148.16597333 43.02620445a27.30666667 27.30666667 0 1 0 29.04519111 46.2483911c36.02659555-22.62812445 76.75904-34.66126222 119.12078222-34.66126222 39.78581333 0 78.15168 10.61319111 112.56718222 30.69269334a27.30666667 27.30666667 0 0 0 27.52512-47.16771556zM607.31847111 308.01009778a188.27946667 188.27946667 0 0 0-176.07338666-1.21059556 18.20444445 18.20444445 0 0 0 16.74808888 32.33109333 151.87968 151.87968 0 0 1 142.14940445 0.97393778 18.20444445 18.20444445 0 1 0 17.17589333-32.09443555z" p-id="2290"></path><path d="M196.88106667 367.39299555c-24.90368 42.67121778-38.14741333 90.5216-38.14741334 140.09230223 0 52.77468445 15.00046222 103.54688 43.02620445 148.16597333a27.30666667 27.30666667 0 1 0 46.24839111-29.04519111c-22.62812445-36.02659555-34.66126222-76.75904-34.66126222-119.12078222 0-39.78581333 10.61319111-78.15168 30.69269333-112.56718223a27.30666667 27.30666667 0 0 0-47.16771555-27.52512zM321.66343111 421.23264a188.27946667 188.27946667 0 0 0-1.21059556 176.07338667 18.20444445 18.20444445 0 0 0 32.33109334-16.74808889 151.87968 151.87968 0 0 1 0.97393778-142.14940445 18.20444445 18.20444445 0 1 0-32.09443556-17.17589333z" p-id="2291"></path><path d="M521.10222222 621.22666667c60.32042667 0 109.22666667-48.90624 109.22666667-109.22666667s-48.90624-109.22666667-109.22666667-109.22666667-109.22666667 48.90624-109.22666667 109.22666667 48.90624 109.22666667 109.22666667 109.22666667z m0-54.61333334a54.61333333 54.61333333 0 1 1 0-109.22666666 54.61333333 54.61333333 0 0 1 0 109.22666666z" p-id="2292"></path></svg>