<?xml version="1.0" standalone="no"?><!DOCTYPE svg PUBLIC "-//W3C//DTD SVG 1.1//EN" "http://www.w3.org/Graphics/SVG/1.1/DTD/svg11.dtd"><svg t="1606749625672" class="icon" viewBox="0 0 1024 1024" version="1.1" xmlns="http://www.w3.org/2000/svg" p-id="4226" xmlns:xlink="http://www.w3.org/1999/xlink" width="200" height="200"><defs><style type="text/css"></style></defs><path d="M643.072 919.04c-17.408-14.336-19.456-35.328-19.456-35.328l-6.656-46.08H407.04l-6.656 46.08s-2.048 20.992-19.456 35.328c-17.408 13.824-31.232 26.112-17.408 28.16 13.312 2.048 139.264 0 148.48 0 9.216 0 135.168 2.048 148.48 0 13.824-2.048 0-13.824-17.408-28.16zM977.92 75.776H46.08c-22.528 0-40.448 19.968-40.448 44.032V760.32c0 24.576 17.92 44.032 40.448 44.032h931.84c22.528 0 40.448-19.968 40.448-44.032V119.808c0-24.064-17.92-44.032-40.448-44.032z m-20.48 585.728H66.56V131.072h890.88v530.432z" p-id="4227"></path><path d="M303.616 356.864h224.768v54.272c0 1.024 0 2.048 0.512 3.072v1.024c0 0.512 0.512 1.536 1.024 2.048 0 0 0 0.512 0.512 0.512 0.512 0.512 1.024 1.536 1.536 2.048 1.024 1.024 2.048 1.536 3.072 2.048 4.096 2.048 9.216 1.536 13.312-1.024l117.76-82.944c3.072-2.56 5.12-6.144 5.12-10.24s-2.048-7.68-5.12-10.24l-117.248-83.456c-2.56-1.536-5.12-2.56-8.192-2.048-1.024 0-1.536 0-2.56 0.512-1.024 0-2.048 0.512-2.56 1.024-4.096 2.048-7.168 6.656-7.168 11.264v54.272H303.616c-16.384 0-29.696 12.8-29.696 29.184 0 15.36 13.312 28.672 29.696 28.672z m337.92 109.568H416.768V412.16c0-4.608-2.56-8.704-7.168-11.264-1.024-0.512-1.536-0.512-2.56-1.024-1.024 0-1.536-0.512-2.56-0.512-2.56 0-5.632 0.512-8.192 2.048L279.04 485.376c-3.072 2.56-5.12 6.144-5.12 10.24s2.048 7.68 5.12 10.24l117.248 83.456c4.096 2.56 9.216 3.072 13.312 1.024 1.024-0.512 2.048-1.024 3.072-2.048 0.512-0.512 1.024-1.536 1.536-2.048l0.512-0.512c0.512-0.512 0.512-1.536 1.024-2.048v-1.024c0.512-1.024 0.512-2.048 0.512-3.072v-54.272h224.768c16.384 0 29.696-12.8 29.696-29.184 0.512-16.384-12.8-29.696-29.184-29.696z" p-id="4228"></path></svg>