<?xml version="1.0" standalone="no"?><!DOCTYPE svg PUBLIC "-//W3C//DTD SVG 1.1//EN" "http://www.w3.org/Graphics/SVG/1.1/DTD/svg11.dtd"><svg t="1605596023192" class="icon" viewBox="0 0 1024 1024" version="1.1" xmlns="http://www.w3.org/2000/svg" p-id="12147" xmlns:xlink="http://www.w3.org/1999/xlink" width="200" height="200"><defs><style type="text/css"></style></defs><path d="M899.3536 734.1568l-62.5664-50.688a48.1792 48.1792 0 0 1-18.7904-37.5552v-233.4208c0.1536-40.2688-8.1664-80.128-24.3968-116.992a295.9872 295.9872 0 0 0-62.5664-96.384 302.8736 302.8736 0 0 0-138.9312-76.9792V88.96a76.9792 76.9792 0 0 0-153.3184 0v33.1776c-13.8752 3.84-27.4688 8.6784-40.6784 14.3872a300.3648 300.3648 0 0 0-183.3472 275.968v233.4208a49.4336 49.4336 0 0 1-18.1504 37.5552l-62.5664 50.688a71.3472 71.3472 0 0 0-25.6768 37.5296 68.8384 68.8384 0 0 0 0 41.9328c4.352 13.568 12.9024 25.4208 24.4224 33.792a71.3984 71.3984 0 0 0 43.1616 14.4128h680.2432c15.616 0.2304 30.8224-4.864 43.1616-14.4128 11.6992-8.3456 20.48-20.1728 25.0368-33.792a73.8304 73.8304 0 0 0 0-41.9328 66.9696 66.9696 0 0 0-25.0368-37.5296z m-98.2528-8.1408l62.592 50.0736a16.896 16.896 0 0 1 5.632 20.0192 17.5104 17.5104 0 0 1-16.896 12.5184H175.3088a17.5104 17.5104 0 0 1-16.896-12.544 18.7648 18.7648 0 0 1 5.632-19.9936l62.592-50.0736a101.376 101.376 0 0 0 39.424-80.1024v-233.4208a246.5536 246.5536 0 0 1 493.1328 0v233.4208a101.376 101.376 0 0 0 41.9072 80.1024zM515.1488 66.4576c12.544 0 22.784 9.984 23.1424 22.528v20.0192h-45.696v-20.0192a22.528 22.528 0 0 1 22.528-22.528zM413.7472 910.0032a101.376 101.376 0 0 0 202.752 0h-202.752zM251.0592 136.5248c5.1456-4.7616 8.448-11.1872 9.3696-18.1504a28.16 28.16 0 0 0-5.632-20.0192 26.9056 26.9056 0 0 0-21.248-10.0096 26.2912 26.2912 0 0 0-16.2816 6.272 461.824 461.824 0 0 0-117.0176 137.6512 466.2016 466.2016 0 0 0-57.6 177.1008 26.9056 26.9056 0 0 0 23.168 30.0288c13.7216 0.1024 25.3184-10.1376 26.9056-23.7568A415.5136 415.5136 0 0 1 251.0592 136.5248z m679.5776 95.744a480.5888 480.5888 0 0 0-116.992-138.9056 28.16 28.16 0 0 0-16.896-6.272c-8.192 0.1536-15.9488 3.8144-21.2992 10.0096a26.9056 26.9056 0 0 0 4.3776 37.5552 417.408 417.408 0 0 1 153.344 280.9856c1.8432 13.4656 13.2608 23.5776 26.88 23.7568h3.1232c7.0144-1.1776 13.4144-4.7104 18.176-9.984a28.16 28.16 0 0 0 5.632-20.0448 477.4656 477.4656 0 0 0-56.32-177.1008z" p-id="12148"></path></svg>