<?xml version="1.0" standalone="no"?><!DOCTYPE svg PUBLIC "-//W3C//DTD SVG 1.1//EN" "http://www.w3.org/Graphics/SVG/1.1/DTD/svg11.dtd"><svg t="1604934915527" class="icon" viewBox="0 0 1024 1024" version="1.1" xmlns="http://www.w3.org/2000/svg" p-id="943" xmlns:xlink="http://www.w3.org/1999/xlink" width="200" height="200"><defs><style type="text/css"></style></defs><path d="M955.91917036-0.51579259h-296.12562962c-45.26838518 0-82.16272592 37.0157037-82.16272593 82.16272592v296.12562964c0 45.26838518 37.0157037 82.16272592 82.16272593 82.16272592h296.12562962c45.26838518 0 82.16272592-37.0157037 82.16272594-82.16272592v-296.12562964c0.12136297-45.14702222-36.89434075-82.16272592-82.16272594-82.16272592z m8.13131852 378.28835556c0 4.2477037-3.76225185 8.00995555-8.00995555 8.00995555h-296.12562963c-4.2477037 0-8.00995555-3.76225185-8.00995555-8.00995555v-296.12562964c0-4.2477037 3.76225185-8.00995555 8.00995555-8.00995555h296.12562963c4.2477037 0 8.00995555 3.76225185 8.00995555 8.00995555v296.12562964z" p-id="944"></path><path d="M760.5248 182.37819259h94.78447408v94.78447408h-94.78447408zM406.50903703-0.51579259h-296.12562962c-45.26838518 0-82.16272592 37.0157037-82.16272593 82.16272592v296.12562964c0 45.26838518 37.0157037 82.16272592 82.16272593 82.16272592h296.12562962c45.26838518 0 82.16272592-37.0157037 82.16272593-82.16272592v-296.12562964c0.12136297-45.14702222-36.89434075-82.16272592-82.16272593-82.16272592z m8.13131852 378.28835556c0 4.2477037-3.76225185 8.00995555-8.00995555 8.00995555h-296.12562964c-4.2477037 0-8.00995555-3.76225185-8.00995555-8.00995555v-296.12562964c0-4.2477037 3.76225185-8.00995555 8.00995555-8.00995555h296.12562964c4.2477037 0 8.00995555 3.76225185 8.00995555 8.00995555v296.12562964z" p-id="945"></path><path d="M211.11466666 182.37819259h94.78447408v94.78447408h-94.78447408zM406.50903703 548.89434075h-296.12562962c-45.26838518 0-82.16272592 37.0157037-82.16272593 82.28408888v296.12562962c0 45.26838518 37.0157037 82.16272592 82.16272593 82.16272593h296.12562962c45.26838518 0 82.16272592-37.0157037 82.16272593-82.16272593v-296.12562962c0.12136297-45.26838518-36.89434075-82.28408889-82.16272593-82.28408888z m8.13131852 378.28835555c0 4.2477037-3.76225185 8.00995555-8.00995555 8.00995555h-296.12562964c-4.2477037 0-8.00995555-3.76225185-8.00995555-8.00995555v-296.12562963c0-4.2477037 3.76225185-8.00995555 8.00995555-8.00995556h296.12562964c4.2477037 0 8.00995555 3.76225185 8.00995555 8.00995556v296.12562963z" p-id="946"></path><path d="M211.11466666 731.78832592h94.78447408v94.78447408h-94.78447408zM947.90921481 719.28794075h-117.84343703c-38.95751111 0-70.63324445 31.67573333-70.63324445 70.63324443v142.60148149l-105.8285037 1.21362963V756.30364445c0-20.51034075-16.62672592-37.13706667-37.13706667-37.13706667s-37.13706667 16.62672592-37.13706666 37.13706667v177.31128888c0 40.17114075 32.768 72.93914075 72.93914073 72.93914075h109.34802963c39.68568889 0 71.96823703-32.28254815 71.96823704-71.96823705V793.44071111h105.82850371V969.53837037c0 20.51034075 16.62672592 37.13706667 37.13706667 37.13706666s37.13706667-16.62672592 37.13706666-37.13706666V785.06666667c0-36.28752592-29.4912-65.77872592-65.77872593-65.77872592zM616.58832592 669.04367408c20.51034075 0 37.13706667-16.62672592 37.13706666-37.13706667v-88.83768889c0-20.51034075-16.62672592-37.13706667-37.13706666-37.13706667S579.45125925 522.55857778 579.45125925 543.06891852v88.83768889c0.12136297 20.51034075 16.74808889 37.13706667 37.13706667 37.13706667zM833.70666666 631.90660741v-88.83768889c0-20.51034075-16.62672592-37.13706667-37.13706666-37.13706667s-37.13706667 16.62672592-37.13706667 37.13706667v88.83768889c0 20.51034075 16.62672592 37.13706667 37.13706667 37.13706667s37.13706667-16.62672592 37.13706666-37.13706667zM976.55087408 506.05321482c-20.51034075 0-37.13706667 16.62672592-37.13706667 37.13706666v88.83768889c0 20.51034075 16.62672592 37.13706667 37.13706667 37.13706666s37.13706667-16.62672592 37.13706666-37.13706666v-88.83768889c0-20.51034075-16.62672592-37.13706667-37.13706666-37.13706666z" p-id="947"></path></svg>