<?xml version="1.0" standalone="no"?><!DOCTYPE svg PUBLIC "-//W3C//DTD SVG 1.1//EN" "http://www.w3.org/Graphics/SVG/1.1/DTD/svg11.dtd"><svg t="1605248323429" class="icon" viewBox="0 0 1024 1024" version="1.1" xmlns="http://www.w3.org/2000/svg" p-id="1036" xmlns:xlink="http://www.w3.org/1999/xlink" width="200" height="200"><defs><style type="text/css"></style></defs><path d="M901.34044445 124.59733334L517.35111111 2.67733334l-383.86133333 121.92c-14.432 4.55466667-24.18133333 17.984-24.05333333 33.17333333v485.26933334c0.768 3.296 18.86933333 83.17866667 97.35466666 160.53333333 60.384 59.49866667 205.22666667 135.97866667 268.40533334 169.14133333 9.86666667 5.19466667 14.56 7.09333333 18.73066666 9.36533334l18.74133334 9.36533333c4.93866667 2.656 13.80266667 2.53866667 18.74133333 0l18.74133333-9.36533333c36.96-18.10133333 208-109.76 277.76-178.50666667 78.624-77.35466667 96.72533333-157.23733333 97.48266667-160.53333333V157.77066667c0.24533333-15.18933333-9.62133333-28.61866667-24.05333333-33.17333333zM522.16177778 916.24533334l-0.256-0.128h0.62933333c-0.24533333 0.128-0.37333333 0.128-0.37333333 0.128z m91.53066667-281.94133333h-62.03733334v87.36c0 20.256-16.45866667 36.71466667-36.71466666 36.71466666-20.256 0-36.71466667-16.45866667-36.71466667-36.71466666V496.30933334c0-0.75733333 0.128-1.38666667 0.128-2.02666667-6.70933333-2.02666667-13.41866667-4.43733333-20.128-7.46666666-22.656-10.37866667-42.02666667-28.992-54.944-50.13333334-13.41866667-22.02666667-20.512-49.632-18.35733333-75.456 2.528-29.49333333 13.16266667-55.2 32.032-78.112 32.66133333-39.62666667 92.672-55.70133333 140.77866666-38.112 27.22133333 10.00533333 49.376 26.72 66.09066667 50.26133334 14.688 20.64 22.15466667 46.336 22.79466667 71.53066666 0 0.75733333 0.128 1.38666667 0 2.15466667 0 0.88533333 0 1.77066667-0.128 2.656-1.77066667 55.95733333-40.256 108.74666667-94.95466667 123.31733333v64.43733334h62.03733333c20.256 0 36.71466667 16.45866667 36.71466667 36.71466666v1.51466667h0.128c-0.01066667 20.256-16.46933333 36.71466667-36.72533333 36.71466667z" p-id="1037"></path><path d="M559.63377778 402.24000001c0.37333333-0.62933333 0.75733333-1.14133333 0.88533333-1.26933334a103.872 103.872 0 0 0 5.952-10.38933333c1.64266667-4.68266667 2.912-9.36533333 3.92533334-14.304 0.128-2.4 0.256-4.93866667 0.384-7.34933333 0-2.41066667-0.128-4.93866667-0.384-7.33866667-0.88533333-4.81066667-2.28266667-9.62133333-3.92533334-14.304a115.97866667 115.97866667 0 0 0-4.81066666-8.736c-0.384-0.384-1.26933333-1.64266667-2.784-4.05333333-1.38666667-1.52533333-2.784-3.168-4.29866667-4.55466667-1.77066667-1.77066667-3.66933333-3.54133333-5.696-5.19466667-0.62933333-0.37333333-1.13066667-0.75733333-1.26933333-0.88533333a103.70773333 103.70773333 0 0 0-10.37866667-5.952c-4.68266667-1.64266667-9.36533333-2.912-14.176-3.92533333-4.93866667-0.37333333-9.87733333-0.37333333-14.816 0-4.81066667 0.88533333-9.62133333 2.28266667-14.176 3.92533333a115.97866667 115.97866667 0 0 0-8.736 4.81066667c-0.384 0.384-1.64266667 1.26933333-4.05333333 2.784-1.52533333 1.38666667-3.168 2.784-4.55466667 4.29866666-1.77066667 1.77066667-3.54133333 3.66933333-5.19466667 5.696-0.37333333 0.62933333-0.75733333 1.14133333-0.88533333 1.26933334a103.70773333 103.70773333 0 0 0-5.952 10.37866666c-1.64266667 4.68266667-2.912 9.36533333-3.92533333 14.176-0.37333333 4.93866667-0.37333333 9.87733333 0 14.816 0.88533333 4.81066667 2.28266667 9.62133333 3.92533333 14.176 1.51466667 3.04 3.04 5.824 4.81066667 8.736 0.384 0.384 1.26933333 1.64266667 2.784 4.05333334 1.38666667 1.52533333 2.784 3.168 4.29866666 4.55466666 1.77066667 1.77066667 3.66933333 3.54133333 5.696 5.19466667 0.62933333 0.37333333 1.14133333 0.75733333 1.26933334 0.88533333 3.28533333 2.15466667 6.83733333 4.18133333 10.37866666 5.952 4.68266667 1.64266667 9.36533333 2.912 14.176 3.92533334 4.93866667 0.384 9.87733333 0.384 14.816 0 4.81066667-0.88533333 9.62133333-2.28266667 14.176-3.92533334 3.04-1.51466667 5.824-3.04 8.736-4.81066666 0.384-0.384 1.64266667-1.26933333 4.05333334-2.784 1.64266667-1.26933333 3.168-2.656 4.55466666-4.18133334 1.78133333-1.74933333 3.552-3.648 5.19466667-5.67466666z" p-id="1038"></path></svg>