<?xml version="1.0" standalone="no"?><!DOCTYPE svg PUBLIC "-//W3C//DTD SVG 1.1//EN" "http://www.w3.org/Graphics/SVG/1.1/DTD/svg11.dtd"><svg t="1605510208678" class="icon" viewBox="0 0 1024 1024" version="1.1" xmlns="http://www.w3.org/2000/svg" p-id="1548" xmlns:xlink="http://www.w3.org/1999/xlink" width="200" height="200"><defs><style type="text/css"></style></defs><path d="M27.38769442 468.06913945L410.56242207 84.97067946l234.4504619 238.7215172 211.64607302-211.4935359a38.13442697 38.13442697 0 0 1 48.65952899-4.42359242l5.33882045 4.42359242a38.13442697 38.13442697 0 0 1 4.34732475 48.5832613l-4.4235942 5.33882048-266.02576615 265.94949668-234.52672955-238.79778486-328.71876687 328.71876507a38.13442697 38.13442697 0 0 1-48.58325954 4.42359419l-5.33882045-4.42359419a38.13442697 38.13442697 0 0 1-4.34732473-48.65952898l4.34732473-5.262551zM113.72403903 694.20629553a38.13442697 38.13442697 0 0 1 37.52427672 31.27023002l0.61015024 6.86419696V969.61313087a38.13442697 38.13442697 0 0 1-75.65870368 6.86419697L75.58961027 969.61313087v-237.27240836a38.13442697 38.13442697 0 0 1 38.13442876-38.13442698z" fill="#ffffff" p-id="1549"></path><path d="M400.41866551 397.59671728a38.13442697 38.13442697 0 0 1 37.52427675 31.27023001l0.61015024 6.86419698v533.8819866a38.13442697 38.13442697 0 0 1-75.65870372 6.86419697L362.28423676 969.61313087V435.73114427a38.13442697 38.13442697 0 0 1 38.13442875-38.13442699zM687.11329201 575.53195574a38.13442697 38.13442697 0 0 1 37.52427672 31.27023181l0.61015025 6.86419696V969.61313087a38.13442697 38.13442697 0 0 1-75.65870372 6.86419697L648.97886323 969.61313087V613.66638451a38.13442697 38.13442697 0 0 1 38.13442878-38.13442877zM973.88418614 634.86912563a38.13442697 38.13442697 0 0 1 37.44800909 31.27023002l0.68641969 6.86419696V969.61313087a38.13442697 38.13442697 0 0 1-75.65870551 6.86419697l-0.61015024-6.86419697v-296.60957826a38.13442697 38.13442697 0 0 1 38.13442697-38.13442698zM968.5453675 337.34432114a38.13442697 38.13442697 0 0 0 35.0074045-34.09217827l0.07626767-6.86419695-19.29601917-250.69572626-250.69572805-19.29602094a38.13442697 38.13442697 0 0 0-12.66062875 74.89601634l6.86419695 1.1440328 185.48585512 14.33854419 14.26227651 185.4858569a38.13442697 38.13442697 0 0 0 34.09217826 35.00740451l6.86419696 0.07626768z" fill="#ffffff" p-id="1550"></path></svg>