<?xml version="1.0" standalone="no"?><!DOCTYPE svg PUBLIC "-//W3C//DTD SVG 1.1//EN" "http://www.w3.org/Graphics/SVG/1.1/DTD/svg11.dtd"><svg t="1604835544028" class="icon" viewBox="0 0 1024 1024" version="1.1" xmlns="http://www.w3.org/2000/svg" p-id="880" xmlns:xlink="http://www.w3.org/1999/xlink" width="200" height="200"><defs><style type="text/css"></style></defs><path d="M912.62795078 1025.74643102h-801.25590156c-61.27251012 0-113.11848021-51.84597011-113.11848024-117.83175023v-268.65639054h1027.49286204v268.65639054c0 65.98578013-51.84597011 117.83175024-113.11848024 117.83175023z m-273.36966053-254.5165805H125.51185923v127.25829025h513.74643102v-127.25829025z m259.22985052 0h-127.25829025v127.25829025h127.25829025v-127.25829025zM-1.74643102 111.37204922C-1.74643102 45.38626907 50.09953909-6.45970103 111.37204922-6.45970103h801.25590156c61.27251012 0 113.11848021 51.84597011 113.11848024 117.83175025v461.9004609H-1.74643102V111.37204922zM205.63744939 464.8672999l94.26540019-160.25118031 216.81042043 146.11137029 117.83175022-183.81753036 230.95023047 131.97156027 51.84597011-94.2654002-320.50236064-202.67061041-108.40521022 188.53080038-235.66350047-127.25829025-141.39810026 249.80331049 94.26540017 51.8459701z" p-id="881"></path></svg>