<?xml version="1.0" standalone="no"?><!DOCTYPE svg PUBLIC "-//W3C//DTD SVG 1.1//EN" "http://www.w3.org/Graphics/SVG/1.1/DTD/svg11.dtd"><svg t="1605597110732" class="icon" viewBox="0 0 1024 1024" version="1.1" xmlns="http://www.w3.org/2000/svg" p-id="2092" xmlns:xlink="http://www.w3.org/1999/xlink" width="200" height="200"><defs><style type="text/css"></style></defs><path d="M925.22723555 512h63.57333334c17.55591111 0 31.78723555 14.23132445 31.78723556 31.78723555s-14.23132445 31.78723555-31.78723556 31.78723556h-63.57333334c-17.55591111 0-31.78723555-14.23132445-31.78723555-31.78723556S907.67132445 512 925.22723555 512z m-62.3661511-366.75470222l44.94677333-44.94677333c12.41201778-12.41998222 32.54158222-12.42680889 44.96270222-0.0159289 12.41998222 12.41201778 12.42680889 32.54158222 0.01592889 44.96270223l-44.97749334 44.94677333c-12.62705778 12.19697778-32.74979555 11.84768-44.94677333-0.77824-11.90001778-12.31872-11.90001778-31.84981333-0.00113777-44.16853333z m6.86648888 764.72433777l39.57418667 39.57418667c11.2128 10.65187555 28.93824 10.19676445 39.59125333-1.01603555 10.26161778-10.80206222 10.26844445-27.74812445 0.01592889-38.55815112l-39.60604444-39.60604444c-10.65187555-11.2128-28.37731555-11.66791111-39.59125333-1.01603556-11.2128 10.65187555-11.66791111 28.37731555-1.01603556 39.59011556 0.33450667 0.35271111 0.67811555 0.69632 1.03196444 1.03196444z m-262.36700444 78.83093334L257.70666667 734.50723555H66.98666667C31.87598222 734.50723555 3.41333333 706.04344889 3.41333333 670.93390222V353.06723555c0-35.11068445 28.46264889-63.57333333 63.57333334-63.57333333H257.70666667l349.65390222-254.29333333c35.11068445 0 63.57333333 28.46264889 63.57333333 63.57333333v826.45333333c0 35.10954667-28.46378667 63.57333333-63.57333333 63.57333334z m0-811.60988444c0-61.50712889 0.25372445-55.21294222-51.46282667-14.84458667L289.49390222 353.06723555H130.56c-33.30844445-1.75786667-61.73582222 23.81937778-63.49368889 57.12782223a61.78702222 61.78702222 0 0 0-0.07964444 2.47239111v198.66624c0.39253333 33.35281778 27.74812445 60.07239111 61.10094222 59.67985778a57.80593778 57.80593778 0 0 0 2.47239111-0.07964445h158.93390222l266.40384 190.72c39.35232 22.25038222 51.46282667 62.55616 51.46282667-46.63068444V177.19068445z m95.35943111 492.15374222v-63.57333334c43.01027555-8.73358222 70.79708445-50.68117333 62.06350222-93.69144888-6.34993778-31.27182222-30.79054222-55.71242667-62.06350222-62.06236445v-63.57333333c78.12096 8.29326222 134.72768 78.34510222 126.43555555 156.46606222-7.07925333 66.67605333-59.75836445 119.35630222-126.43555555 126.43441778z" p-id="2093"></path></svg>