<?xml version="1.0" standalone="no"?><!DOCTYPE svg PUBLIC "-//W3C//DTD SVG 1.1//EN" "http://www.w3.org/Graphics/SVG/1.1/DTD/svg11.dtd"><svg t="1605405383065" class="icon" viewBox="0 0 1024 1024" version="1.1" xmlns="http://www.w3.org/2000/svg" p-id="1096" xmlns:xlink="http://www.w3.org/1999/xlink" width="200" height="200"><defs><style type="text/css"></style></defs><path d="M948.68574814 713.82660741c-69.54097778-68.32734815-187.86986667-68.32734815-257.41084444 0-69.54097778 68.32734815-69.54097778 184.35034075 0 252.67768889 69.54097778 68.32734815 187.86986667 68.32734815 257.41084444 0 69.54097778-68.20598518 69.54097778-184.35034075 0-252.67768889zM902.81054813 820.26192592v39.44296297h-59.22512591v19.78216296h59.22512591v39.44296297h-59.22512591v39.44296296h-39.44296297v-39.44296296h-59.22512593v-39.44296297h59.22512593v-19.78216296h-59.22512593V820.26192592H784.3602963l-44.29748151-79.12865184h41.74885928l34.83117036 54.61333333c6.91768889 6.79632592 6.91768889 13.71401482 6.91768889 20.51034074 0-6.79632592 6.91768889-13.71401482 6.9176889-20.51034074l34.83117037-54.61333333H906.93688889L863.24622222 820.26192592h39.56432591zM802.56474074 597.80361482c27.79211852 0 46.72474075-1.57771852 60.68148148 5.2186074V207.98577778c0-54.61333333-36.16616297-98.78945185-98.78945185-98.78945186H646.00651852c0-47.81700741-45.14702222-98.78945185-86.89588149-98.78945184H392.1152c-41.74885925 0-81.92 57.76877037-81.92 98.78945184h-98.78945186c-55.7056 6.79632592-118.45025185 37.86524445-118.45025185 92.47857778v648.8064c0 54.61333333 55.94832592 88.35223703 118.45025185 88.35223705h375.25428149C563.11561479 908.85688889 566.99922963 874.87525925 566.99922963 820.26192592c0-122.94068148 103.40124445-222.45831111 235.56551111-222.4583111zM392.1152 71.9378963h166.99543703c13.95674075 0 27.79211852 13.71401482 27.79211852 27.30666667 0 13.71401482-13.95674075 27.30666667-27.79211852 27.30666666H392.1152c-13.95674075-6.79632592-20.87442963-20.51034075-20.87442963-27.30666666 0-13.59265185 6.91768889-27.30666667 20.87442963-27.30666667zM290.41303702 286.99306667h395.03644445c21.84533333 0 39.44296297 17.71899259 39.44296297 39.44296296 0 21.84533333-17.71899259 39.56432592-39.44296297 39.56432592H290.41303702c-21.84533333 0-39.44296297-17.71899259-39.44296295-39.56432592 0-21.72397037 17.71899259-39.44296297 39.44296295-39.44296296z m158.01457779 395.03644444H290.41303702c-21.84533333 0-39.44296297-17.71899259-39.44296295-39.56432593S268.68906667 603.02222222 290.41303702 603.02222222h158.01457779c21.84533333 0 39.44296297 17.71899259 39.44296296 39.44296296 0.12136297 21.84533333-17.59762963 39.56432592-39.44296296 39.56432593zM290.41303702 524.01493333c-21.84533333 0-39.44296297-17.71899259-39.44296295-39.44296296 0-21.84533333 17.71899259-39.56432592 39.44296295-39.56432592h296.24699261c21.84533333 0 39.44296297 17.71899259 39.44296295 39.56432592s-17.71899259 39.44296297-39.44296295 39.44296296H290.41303702z" p-id="1097"></path></svg>